<svg id="visual" viewBox="0 0 450 900" width="450" height="900" xmlns="http://www.w3.org/2000/svg" xmlns:xlink="http://www.w3.org/1999/xlink" version="1.1"><g stroke-width="1" stroke-linejoin="bevel"><path d="M222 445L244 407L207 444Z" fill="#0d2b3a" stroke="#0d2b3a"></path><path d="M222 445L278 417L244 407Z" fill="#24618a" stroke="#24618a"></path><path d="M278 417L274 390L244 407Z" fill="#0e3245" stroke="#0e3245"></path><path d="M274 390L211 347L244 407Z" fill="#164966" stroke="#164966"></path><path d="M244 407L211 347L207 444Z" fill="#1e597e" stroke="#1e597e"></path><path d="M278 417L298 397L274 390Z" fill="#0b2430" stroke="#0b2430"></path><path d="M274 390L272 312L211 347Z" fill="#1a5172" stroke="#1a5172"></path><path d="M211 517L274 481L222 445Z" fill="#164966" stroke="#164966"></path><path d="M222 445L274 481L278 417Z" fill="#3071a3" stroke="#3071a3"></path><path d="M278 417L356 434L298 397Z" fill="#0d2b3a" stroke="#0d2b3a"></path><path d="M109 448L161 484L207 444Z" fill="#0b2430" stroke="#0b2430"></path><path d="M207 444L211 517L222 445Z" fill="#164966" stroke="#164966"></path><path d="M211 347L119 385L207 444Z" fill="#3071a3" stroke="#3071a3"></path><path d="M161 484L211 517L207 444Z" fill="#0e3245" stroke="#0e3245"></path><path d="M160 333L119 385L211 347Z" fill="#1a5172" stroke="#1a5172"></path><path d="M161 484L187 518L211 517Z" fill="#103a4f" stroke="#103a4f"></path><path d="M298 397L299 347L274 390Z" fill="#0e3245" stroke="#0e3245"></path><path d="M178 267L140 300L160 333Z" fill="#103a4f" stroke="#103a4f"></path><path d="M187 518L210 526L211 517Z" fill="#0b2430" stroke="#0b2430"></path><path d="M211 517L219 538L274 481Z" fill="#1a5172" stroke="#1a5172"></path><path d="M140 300L148 329L160 333Z" fill="#3071a3" stroke="#3071a3"></path><path d="M160 333L128 345L119 385Z" fill="#103a4f" stroke="#103a4f"></path><path d="M298 397L304 347L299 347Z" fill="#296996" stroke="#296996"></path><path d="M299 347L272 312L274 390Z" fill="#164966" stroke="#164966"></path><path d="M119 385L109 448L207 444Z" fill="#296996" stroke="#296996"></path><path d="M161 484L147 505L187 518Z" fill="#1e597e" stroke="#1e597e"></path><path d="M98 483L147 505L161 484Z" fill="#24618a" stroke="#24618a"></path><path d="M193 562L219 538L210 526Z" fill="#13415b" stroke="#13415b"></path><path d="M148 329L128 345L160 333Z" fill="#164966" stroke="#164966"></path><path d="M273 554L307 489L274 481Z" fill="#3071a3" stroke="#3071a3"></path><path d="M274 481L307 489L278 417Z" fill="#0d2b3a" stroke="#0d2b3a"></path><path d="M298 397L334 366L304 347Z" fill="#0d2b3a" stroke="#0d2b3a"></path><path d="M304 347L272 312L299 347Z" fill="#24618a" stroke="#24618a"></path><path d="M94 440L102 452L109 448Z" fill="#103a4f" stroke="#103a4f"></path><path d="M109 448L98 483L161 484Z" fill="#0d2b3a" stroke="#0d2b3a"></path><path d="M94 440L109 448L119 385Z" fill="#24618a" stroke="#24618a"></path><path d="M229 558L219 538L193 562Z" fill="#0e3245" stroke="#0e3245"></path><path d="M210 526L219 538L211 517Z" fill="#1e597e" stroke="#1e597e"></path><path d="M81 417L94 440L119 385Z" fill="#1a5172" stroke="#1a5172"></path><path d="M361 419L334 366L298 397Z" fill="#13415b" stroke="#13415b"></path><path d="M352 250L263 272L272 312Z" fill="#24618a" stroke="#24618a"></path><path d="M140 300L106 340L128 345Z" fill="#0b2430" stroke="#0b2430"></path><path d="M128 345L106 340L119 385Z" fill="#164966" stroke="#164966"></path><path d="M106 340L81 417L119 385Z" fill="#13415b" stroke="#13415b"></path><path d="M84 461L102 452L94 440Z" fill="#0d2b3a" stroke="#0d2b3a"></path><path d="M84 461L98 483L102 452Z" fill="#3071a3" stroke="#3071a3"></path><path d="M102 452L98 483L109 448Z" fill="#1e597e" stroke="#1e597e"></path><path d="M193 562L210 526L187 518Z" fill="#24618a" stroke="#24618a"></path><path d="M198 274L160 333L211 347Z" fill="#103a4f" stroke="#103a4f"></path><path d="M148 329L140 300L128 345Z" fill="#1e597e" stroke="#1e597e"></path><path d="M54 447L84 461L94 440Z" fill="#13415b" stroke="#13415b"></path><path d="M307 489L356 434L278 417Z" fill="#103a4f" stroke="#103a4f"></path><path d="M161 549L187 518L147 505Z" fill="#1a5172" stroke="#1a5172"></path><path d="M219 538L273 554L274 481Z" fill="#0e3245" stroke="#0e3245"></path><path d="M272 312L198 274L211 347Z" fill="#3071a3" stroke="#3071a3"></path><path d="M145 553L161 549L147 505Z" fill="#24618a" stroke="#24618a"></path><path d="M356 434L361 419L298 397Z" fill="#164966" stroke="#164966"></path><path d="M161 549L193 562L187 518Z" fill="#164966" stroke="#164966"></path><path d="M296 566L273 554L247 641Z" fill="#1e597e" stroke="#1e597e"></path><path d="M229 558L273 554L219 538Z" fill="#0e3245" stroke="#0e3245"></path><path d="M307 489L365 449L356 434Z" fill="#1e597e" stroke="#1e597e"></path><path d="M308 563L340 501L307 489Z" fill="#24618a" stroke="#24618a"></path><path d="M356 434L381 421L361 419Z" fill="#164966" stroke="#164966"></path><path d="M352 250L272 312L304 347Z" fill="#164966" stroke="#164966"></path><path d="M272 312L263 272L198 274Z" fill="#103a4f" stroke="#103a4f"></path><path d="M340 501L365 449L307 489Z" fill="#0b2430" stroke="#0b2430"></path><path d="M80 537L145 553L147 505Z" fill="#164966" stroke="#164966"></path><path d="M161 549L136 621L193 562Z" fill="#0d2b3a" stroke="#0d2b3a"></path><path d="M167 267L139 283L140 300Z" fill="#0e3245" stroke="#0e3245"></path><path d="M140 300L97 268L106 340Z" fill="#24618a" stroke="#24618a"></path><path d="M189 243L178 267L198 274Z" fill="#0d2b3a" stroke="#0d2b3a"></path><path d="M198 274L178 267L160 333Z" fill="#1e597e" stroke="#1e597e"></path><path d="M178 267L167 267L140 300Z" fill="#1e597e" stroke="#1e597e"></path><path d="M389 420L381 421L365 449Z" fill="#103a4f" stroke="#103a4f"></path><path d="M365 449L381 421L356 434Z" fill="#1e597e" stroke="#1e597e"></path><path d="M361 419L402 409L334 366Z" fill="#13415b" stroke="#13415b"></path><path d="M334 366L352 250L304 347Z" fill="#103a4f" stroke="#103a4f"></path><path d="M33 411L54 447L81 417Z" fill="#0e3245" stroke="#0e3245"></path><path d="M81 417L54 447L94 440Z" fill="#1e597e" stroke="#1e597e"></path><path d="M84 461L80 537L98 483Z" fill="#0e3245" stroke="#0e3245"></path><path d="M98 483L80 537L147 505Z" fill="#3071a3" stroke="#3071a3"></path><path d="M247 641L273 554L229 558Z" fill="#24618a" stroke="#24618a"></path><path d="M273 554L308 563L307 489Z" fill="#0b2430" stroke="#0b2430"></path><path d="M402 409L389 420L411 416Z" fill="#1a5172" stroke="#1a5172"></path><path d="M381 421L402 409L361 419Z" fill="#296996" stroke="#296996"></path><path d="M296 566L308 563L273 554Z" fill="#164966" stroke="#164966"></path><path d="M411 416L389 420L416 481Z" fill="#1e597e" stroke="#1e597e"></path><path d="M227 235L189 243L198 274Z" fill="#3071a3" stroke="#3071a3"></path><path d="M178 267L189 243L167 267Z" fill="#24618a" stroke="#24618a"></path><path d="M167 267L97 268L139 283Z" fill="#0b2430" stroke="#0b2430"></path><path d="M287 207L241 237L263 272Z" fill="#1a5172" stroke="#1a5172"></path><path d="M263 272L241 237L198 274Z" fill="#164966" stroke="#164966"></path><path d="M241 237L227 235L198 274Z" fill="#24618a" stroke="#24618a"></path><path d="M54 447L80 537L84 461Z" fill="#0e3245" stroke="#0e3245"></path><path d="M31 402L81 417L106 340Z" fill="#1e597e" stroke="#1e597e"></path><path d="M31 402L33 411L81 417Z" fill="#0b2430" stroke="#0b2430"></path><path d="M54 447L0 480L80 537Z" fill="#1e597e" stroke="#1e597e"></path><path d="M389 420L365 449L416 481Z" fill="#0d2b3a" stroke="#0d2b3a"></path><path d="M389 420L402 409L381 421Z" fill="#103a4f" stroke="#103a4f"></path><path d="M9 358L31 402L106 340Z" fill="#3071a3" stroke="#3071a3"></path><path d="M187 208L97 268L167 267Z" fill="#1e597e" stroke="#1e597e"></path><path d="M139 283L97 268L140 300Z" fill="#1a5172" stroke="#1a5172"></path><path d="M399 506L365 449L340 501Z" fill="#296996" stroke="#296996"></path><path d="M419 264L352 250L334 366Z" fill="#1e597e" stroke="#1e597e"></path><path d="M227 235L193 223L189 243Z" fill="#296996" stroke="#296996"></path><path d="M189 243L187 208L167 267Z" fill="#103a4f" stroke="#103a4f"></path><path d="M219 220L193 223L227 235Z" fill="#0d2b3a" stroke="#0d2b3a"></path><path d="M241 237L219 220L227 235Z" fill="#164966" stroke="#164966"></path><path d="M97 268L67 283L106 340Z" fill="#1e597e" stroke="#1e597e"></path><path d="M409 555L399 506L340 501Z" fill="#0e3245" stroke="#0e3245"></path><path d="M80 537L85 576L145 553Z" fill="#0d2b3a" stroke="#0d2b3a"></path><path d="M145 553L136 621L161 549Z" fill="#1e597e" stroke="#1e597e"></path><path d="M193 562L247 641L229 558Z" fill="#296996" stroke="#296996"></path><path d="M49 609L85 576L11 579Z" fill="#0d2b3a" stroke="#0d2b3a"></path><path d="M399 506L416 481L365 449Z" fill="#296996" stroke="#296996"></path><path d="M219 220L187 208L193 223Z" fill="#3071a3" stroke="#3071a3"></path><path d="M193 223L187 208L189 243Z" fill="#1e597e" stroke="#1e597e"></path><path d="M0 181L22 294L67 283Z" fill="#1a5172" stroke="#1a5172"></path><path d="M419 264L334 366L402 409Z" fill="#296996" stroke="#296996"></path><path d="M241 237L275 180L219 220Z" fill="#24618a" stroke="#24618a"></path><path d="M219 220L275 180L187 208Z" fill="#24618a" stroke="#24618a"></path><path d="M31 402L0 463L33 411Z" fill="#3071a3" stroke="#3071a3"></path><path d="M33 411L0 463L54 447Z" fill="#296996" stroke="#296996"></path><path d="M22 294L9 358L106 340Z" fill="#0b2430" stroke="#0b2430"></path><path d="M409 555L418 498L399 506Z" fill="#1a5172" stroke="#1a5172"></path><path d="M399 506L418 498L416 481Z" fill="#103a4f" stroke="#103a4f"></path><path d="M450 419L450 415L411 416Z" fill="#24618a" stroke="#24618a"></path><path d="M85 576L136 621L145 553Z" fill="#1e597e" stroke="#1e597e"></path><path d="M362 606L362 593L350 618Z" fill="#24618a" stroke="#24618a"></path><path d="M332 224L287 207L263 272Z" fill="#0d2b3a" stroke="#0d2b3a"></path><path d="M9 358L0 463L31 402Z" fill="#164966" stroke="#164966"></path><path d="M352 250L345 236L263 272Z" fill="#103a4f" stroke="#103a4f"></path><path d="M345 236L332 224L263 272Z" fill="#0e3245" stroke="#0e3245"></path><path d="M0 463L0 480L54 447Z" fill="#296996" stroke="#296996"></path><path d="M170 645L247 641L193 562Z" fill="#13415b" stroke="#13415b"></path><path d="M308 563L362 593L340 501Z" fill="#3071a3" stroke="#3071a3"></path><path d="M302 637L308 563L296 566Z" fill="#296996" stroke="#296996"></path><path d="M0 296L22 294L0 181Z" fill="#0b2430" stroke="#0b2430"></path><path d="M67 283L22 294L106 340Z" fill="#3071a3" stroke="#3071a3"></path><path d="M0 336L0 339L9 358Z" fill="#13415b" stroke="#13415b"></path><path d="M9 358L0 339L0 463Z" fill="#103a4f" stroke="#103a4f"></path><path d="M22 294L0 336L9 358Z" fill="#103a4f" stroke="#103a4f"></path><path d="M136 621L170 645L193 562Z" fill="#3071a3" stroke="#3071a3"></path><path d="M450 419L411 416L450 441Z" fill="#3071a3" stroke="#3071a3"></path><path d="M411 416L450 413L402 409Z" fill="#1a5172" stroke="#1a5172"></path><path d="M352 250L423 234L345 236Z" fill="#0e3245" stroke="#0e3245"></path><path d="M450 441L411 416L416 481Z" fill="#24618a" stroke="#24618a"></path><path d="M450 415L450 413L411 416Z" fill="#164966" stroke="#164966"></path><path d="M450 519L450 441L416 481Z" fill="#24618a" stroke="#24618a"></path><path d="M85 576L82 611L136 621Z" fill="#103a4f" stroke="#103a4f"></path><path d="M136 621L170 664L170 645Z" fill="#296996" stroke="#296996"></path><path d="M49 609L82 611L85 576Z" fill="#0e3245" stroke="#0e3245"></path><path d="M247 641L302 637L296 566Z" fill="#296996" stroke="#296996"></path><path d="M362 593L409 555L340 501Z" fill="#0b2430" stroke="#0b2430"></path><path d="M418 498L450 519L416 481Z" fill="#164966" stroke="#164966"></path><path d="M350 618L362 593L308 563Z" fill="#24618a" stroke="#24618a"></path><path d="M362 593L411 625L409 555Z" fill="#24618a" stroke="#24618a"></path><path d="M216 698L264 652L247 641Z" fill="#24618a" stroke="#24618a"></path><path d="M247 641L264 652L302 637Z" fill="#13415b" stroke="#13415b"></path><path d="M302 637L350 618L308 563Z" fill="#1a5172" stroke="#1a5172"></path><path d="M312 171L275 180L287 207Z" fill="#0e3245" stroke="#0e3245"></path><path d="M287 207L275 180L241 237Z" fill="#0d2b3a" stroke="#0d2b3a"></path><path d="M170 664L199 661L170 645Z" fill="#13415b" stroke="#13415b"></path><path d="M170 645L199 661L247 641Z" fill="#13415b" stroke="#13415b"></path><path d="M71 166L67 283L97 268Z" fill="#3071a3" stroke="#3071a3"></path><path d="M22 294L0 296L0 336Z" fill="#296996" stroke="#296996"></path><path d="M101 684L170 664L136 621Z" fill="#103a4f" stroke="#103a4f"></path><path d="M450 277L419 264L402 409Z" fill="#0d2b3a" stroke="#0d2b3a"></path><path d="M401 188L312 171L332 224Z" fill="#0b2430" stroke="#0b2430"></path><path d="M332 224L312 171L287 207Z" fill="#0b2430" stroke="#0b2430"></path><path d="M450 620L450 519L409 555Z" fill="#0d2b3a" stroke="#0d2b3a"></path><path d="M409 555L450 519L418 498Z" fill="#1e597e" stroke="#1e597e"></path><path d="M411 625L362 593L362 606Z" fill="#0e3245" stroke="#0e3245"></path><path d="M11 579L85 576L80 537Z" fill="#1e597e" stroke="#1e597e"></path><path d="M82 611L101 684L136 621Z" fill="#0d2b3a" stroke="#0d2b3a"></path><path d="M0 480L0 560L80 537Z" fill="#13415b" stroke="#13415b"></path><path d="M0 560L11 579L80 537Z" fill="#24618a" stroke="#24618a"></path><path d="M302 637L327 654L350 618Z" fill="#1a5172" stroke="#1a5172"></path><path d="M350 618L367 632L362 606Z" fill="#1e597e" stroke="#1e597e"></path><path d="M316 684L327 654L302 637Z" fill="#1a5172" stroke="#1a5172"></path><path d="M316 684L302 637L264 652Z" fill="#24618a" stroke="#24618a"></path><path d="M216 698L247 641L199 661Z" fill="#1e597e" stroke="#1e597e"></path><path d="M327 654L367 632L350 618Z" fill="#13415b" stroke="#13415b"></path><path d="M401 188L332 224L345 236Z" fill="#0b2430" stroke="#0b2430"></path><path d="M318 137L311 163L336 124Z" fill="#1e597e" stroke="#1e597e"></path><path d="M312 171L311 163L275 180Z" fill="#24618a" stroke="#24618a"></path><path d="M135 119L88 158L187 208Z" fill="#296996" stroke="#296996"></path><path d="M450 413L450 277L402 409Z" fill="#1e597e" stroke="#1e597e"></path><path d="M419 264L423 234L352 250Z" fill="#0b2430" stroke="#0b2430"></path><path d="M450 277L444 266L419 264Z" fill="#1a5172" stroke="#1a5172"></path><path d="M450 277L450 273L444 266Z" fill="#0e3245" stroke="#0e3245"></path><path d="M450 273L450 272L444 266Z" fill="#0d2b3a" stroke="#0d2b3a"></path><path d="M450 142L423 234L444 266Z" fill="#3071a3" stroke="#3071a3"></path><path d="M444 266L423 234L419 264Z" fill="#0b2430" stroke="#0b2430"></path><path d="M192 699L199 661L170 664Z" fill="#103a4f" stroke="#103a4f"></path><path d="M192 699L216 698L199 661Z" fill="#103a4f" stroke="#103a4f"></path><path d="M0 560L0 599L11 579Z" fill="#103a4f" stroke="#103a4f"></path><path d="M11 579L0 599L49 609Z" fill="#103a4f" stroke="#103a4f"></path><path d="M111 723L192 699L170 664Z" fill="#3071a3" stroke="#3071a3"></path><path d="M101 684L82 611L33 666Z" fill="#3071a3" stroke="#3071a3"></path><path d="M371 666L367 632L327 654Z" fill="#13415b" stroke="#13415b"></path><path d="M371 666L411 625L367 632Z" fill="#164966" stroke="#164966"></path><path d="M367 632L411 625L362 606Z" fill="#164966" stroke="#164966"></path><path d="M222 723L316 684L264 652Z" fill="#1e597e" stroke="#1e597e"></path><path d="M258 87L187 208L275 180Z" fill="#3071a3" stroke="#3071a3"></path><path d="M187 208L88 158L97 268Z" fill="#103a4f" stroke="#103a4f"></path><path d="M88 158L71 166L97 268Z" fill="#296996" stroke="#296996"></path><path d="M33 666L82 611L49 609Z" fill="#164966" stroke="#164966"></path><path d="M316 684L371 666L327 654Z" fill="#296996" stroke="#296996"></path><path d="M423 234L401 188L345 236Z" fill="#13415b" stroke="#13415b"></path><path d="M403 181L401 188L423 234Z" fill="#1e597e" stroke="#1e597e"></path><path d="M336 124L311 163L312 171Z" fill="#103a4f" stroke="#103a4f"></path><path d="M311 163L284 121L275 180Z" fill="#1a5172" stroke="#1a5172"></path><path d="M409 138L403 181L450 142Z" fill="#0b2430" stroke="#0b2430"></path><path d="M401 188L403 181L312 171Z" fill="#0e3245" stroke="#0e3245"></path><path d="M0 599L0 626L49 609Z" fill="#1e597e" stroke="#1e597e"></path><path d="M318 137L284 121L311 163Z" fill="#0d2b3a" stroke="#0d2b3a"></path><path d="M192 699L222 723L216 698Z" fill="#1a5172" stroke="#1a5172"></path><path d="M216 698L222 723L264 652Z" fill="#1a5172" stroke="#1a5172"></path><path d="M426 689L418 677L420 714Z" fill="#0d2b3a" stroke="#0d2b3a"></path><path d="M192 755L222 723L192 699Z" fill="#296996" stroke="#296996"></path><path d="M258 87L135 119L187 208Z" fill="#1e597e" stroke="#1e597e"></path><path d="M39 113L35 150L71 166Z" fill="#164966" stroke="#164966"></path><path d="M0 626L33 666L49 609Z" fill="#0e3245" stroke="#0e3245"></path><path d="M101 684L111 723L170 664Z" fill="#296996" stroke="#296996"></path><path d="M411 625L450 620L409 555Z" fill="#24618a" stroke="#24618a"></path><path d="M450 634L450 620L411 625Z" fill="#3071a3" stroke="#3071a3"></path><path d="M135 119L109 122L88 158Z" fill="#1a5172" stroke="#1a5172"></path><path d="M403 181L336 124L312 171Z" fill="#1e597e" stroke="#1e597e"></path><path d="M318 137L336 124L284 121Z" fill="#0b2430" stroke="#0b2430"></path><path d="M418 677L450 634L411 625Z" fill="#1e597e" stroke="#1e597e"></path><path d="M35 150L0 181L71 166Z" fill="#3071a3" stroke="#3071a3"></path><path d="M71 166L0 181L67 283Z" fill="#3071a3" stroke="#3071a3"></path><path d="M0 669L51 692L33 666Z" fill="#1e597e" stroke="#1e597e"></path><path d="M33 666L51 692L101 684Z" fill="#13415b" stroke="#13415b"></path><path d="M80 106L71 166L88 158Z" fill="#0d2b3a" stroke="#0d2b3a"></path><path d="M85 733L111 723L101 684Z" fill="#0d2b3a" stroke="#0d2b3a"></path><path d="M0 626L0 662L33 666Z" fill="#1e597e" stroke="#1e597e"></path><path d="M418 677L371 666L420 714Z" fill="#296996" stroke="#296996"></path><path d="M371 666L418 677L411 625Z" fill="#24618a" stroke="#24618a"></path><path d="M262 77L258 87L284 121Z" fill="#0e3245" stroke="#0e3245"></path><path d="M284 121L258 87L275 180Z" fill="#1e597e" stroke="#1e597e"></path><path d="M135 119L95 81L109 122Z" fill="#0e3245" stroke="#0e3245"></path><path d="M0 662L0 669L33 666Z" fill="#1a5172" stroke="#1a5172"></path><path d="M51 692L85 733L101 684Z" fill="#296996" stroke="#296996"></path><path d="M258 87L149 89L135 119Z" fill="#296996" stroke="#296996"></path><path d="M109 122L80 106L88 158Z" fill="#164966" stroke="#164966"></path><path d="M403 181L409 138L336 124Z" fill="#164966" stroke="#164966"></path><path d="M319 69L262 77L284 121Z" fill="#164966" stroke="#164966"></path><path d="M413 127L409 138L450 142Z" fill="#1e597e" stroke="#1e597e"></path><path d="M80 102L80 106L109 122Z" fill="#0d2b3a" stroke="#0d2b3a"></path><path d="M35 150L0 144L0 181Z" fill="#0e3245" stroke="#0e3245"></path><path d="M111 723L192 755L192 699Z" fill="#164966" stroke="#164966"></path><path d="M222 723L235 758L316 684Z" fill="#24618a" stroke="#24618a"></path><path d="M192 755L235 758L222 723Z" fill="#3071a3" stroke="#3071a3"></path><path d="M319 69L284 121L336 124Z" fill="#0d2b3a" stroke="#0d2b3a"></path><path d="M258 87L193 59L149 89Z" fill="#13415b" stroke="#13415b"></path><path d="M95 81L80 102L109 122Z" fill="#0b2430" stroke="#0b2430"></path><path d="M80 106L39 113L71 166Z" fill="#13415b" stroke="#13415b"></path><path d="M68 752L85 733L51 692Z" fill="#0e3245" stroke="#0e3245"></path><path d="M111 723L135 769L192 755Z" fill="#1a5172" stroke="#1a5172"></path><path d="M420 714L371 666L376 762Z" fill="#0d2b3a" stroke="#0d2b3a"></path><path d="M418 677L450 676L450 634Z" fill="#103a4f" stroke="#103a4f"></path><path d="M23 122L0 144L35 150Z" fill="#1a5172" stroke="#1a5172"></path><path d="M426 689L450 676L418 677Z" fill="#0e3245" stroke="#0e3245"></path><path d="M450 142L403 181L423 234Z" fill="#13415b" stroke="#13415b"></path><path d="M409 138L364 98L336 124Z" fill="#24618a" stroke="#24618a"></path><path d="M413 127L364 98L409 138Z" fill="#13415b" stroke="#13415b"></path><path d="M80 102L39 113L80 106Z" fill="#1e597e" stroke="#1e597e"></path><path d="M39 113L23 122L35 150Z" fill="#1a5172" stroke="#1a5172"></path><path d="M450 714L460 675L450 676Z" fill="#0b2430" stroke="#0b2430"></path><path d="M450 676L460 675L450 634Z" fill="#0d2b3a" stroke="#0d2b3a"></path><path d="M450 634L460 675L450 620Z" fill="#3071a3" stroke="#3071a3"></path><path d="M450 620L460 675L450 519Z" fill="#296996" stroke="#296996"></path><path d="M450 519L460 675L450 441Z" fill="#1e597e" stroke="#1e597e"></path><path d="M450 441L460 675L450 419Z" fill="#296996" stroke="#296996"></path><path d="M450 419L460 675L450 415Z" fill="#24618a" stroke="#24618a"></path><path d="M450 415L460 675L450 413Z" fill="#0d2b3a" stroke="#0d2b3a"></path><path d="M450 413L460 675L450 277Z" fill="#0e3245" stroke="#0e3245"></path><path d="M450 277L460 675L450 273Z" fill="#13415b" stroke="#13415b"></path><path d="M450 273L460 675L450 272Z" fill="#24618a" stroke="#24618a"></path><path d="M61 31L0 72L39 113Z" fill="#0d2b3a" stroke="#0d2b3a"></path><path d="M39 113L0 116L23 122Z" fill="#1e597e" stroke="#1e597e"></path><path d="M149 89L95 81L135 119Z" fill="#1a5172" stroke="#1a5172"></path><path d="M95 51L95 81L149 89Z" fill="#0b2430" stroke="#0b2430"></path><path d="M165 36L193 59L199 0Z" fill="#0b2430" stroke="#0b2430"></path><path d="M262 77L193 59L258 87Z" fill="#0d2b3a" stroke="#0d2b3a"></path><path d="M413 127L450 85L364 98Z" fill="#103a4f" stroke="#103a4f"></path><path d="M450 272L450 142L444 266Z" fill="#103a4f" stroke="#103a4f"></path><path d="M460 675L450 142L450 272Z" fill="#24618a" stroke="#24618a"></path><path d="M426 689L450 714L450 676Z" fill="#296996" stroke="#296996"></path><path d="M376 762L371 666L316 684Z" fill="#24618a" stroke="#24618a"></path><path d="M85 733L135 769L111 723Z" fill="#103a4f" stroke="#103a4f"></path><path d="M192 755L236 790L235 758Z" fill="#296996" stroke="#296996"></path><path d="M390 37L319 69L364 98Z" fill="#0b2430" stroke="#0b2430"></path><path d="M364 98L319 69L336 124Z" fill="#103a4f" stroke="#103a4f"></path><path d="M35 782L68 752L51 692Z" fill="#0d2b3a" stroke="#0d2b3a"></path><path d="M85 733L67 758L135 769Z" fill="#103a4f" stroke="#103a4f"></path><path d="M0 72L0 116L39 113Z" fill="#1e597e" stroke="#1e597e"></path><path d="M23 122L0 116L0 144Z" fill="#164966" stroke="#164966"></path><path d="M35 782L67 758L68 752Z" fill="#296996" stroke="#296996"></path><path d="M68 752L67 758L85 733Z" fill="#0d2b3a" stroke="#0d2b3a"></path><path d="M238 802L236 790L182 849Z" fill="#3071a3" stroke="#3071a3"></path><path d="M357 794L376 762L316 684Z" fill="#296996" stroke="#296996"></path><path d="M237 791L236 790L238 802Z" fill="#24618a" stroke="#24618a"></path><path d="M236 790L192 755L182 849Z" fill="#0b2430" stroke="#0b2430"></path><path d="M236 790L237 791L235 758Z" fill="#0b2430" stroke="#0b2430"></path><path d="M428 747L450 714L420 714Z" fill="#296996" stroke="#296996"></path><path d="M420 714L450 714L426 689Z" fill="#3071a3" stroke="#3071a3"></path><path d="M283 808L316 684L235 758Z" fill="#13415b" stroke="#13415b"></path><path d="M228 5L193 59L262 77Z" fill="#13415b" stroke="#13415b"></path><path d="M193 59L165 36L149 89Z" fill="#296996" stroke="#296996"></path><path d="M95 81L61 31L80 102Z" fill="#0d2b3a" stroke="#0d2b3a"></path><path d="M165 36L95 51L149 89Z" fill="#0d2b3a" stroke="#0d2b3a"></path><path d="M251 809L182 849L270 829Z" fill="#296996" stroke="#296996"></path><path d="M237 791L283 808L235 758Z" fill="#103a4f" stroke="#103a4f"></path><path d="M431 774L428 747L376 762Z" fill="#0b2430" stroke="#0b2430"></path><path d="M376 762L428 747L420 714Z" fill="#0e3245" stroke="#0e3245"></path><path d="M251 809L238 802L182 849Z" fill="#164966" stroke="#164966"></path><path d="M238 802L251 809L237 791Z" fill="#0e3245" stroke="#0e3245"></path><path d="M251 809L283 808L237 791Z" fill="#296996" stroke="#296996"></path><path d="M283 808L357 794L316 684Z" fill="#0d2b3a" stroke="#0d2b3a"></path><path d="M251 809L281 815L283 808Z" fill="#24618a" stroke="#24618a"></path><path d="M283 808L292 826L357 794Z" fill="#0d2b3a" stroke="#0d2b3a"></path><path d="M460 675L450 85L450 142Z" fill="#0b2430" stroke="#0b2430"></path><path d="M450 142L450 85L413 127Z" fill="#24618a" stroke="#24618a"></path><path d="M319 69L277 14L262 77Z" fill="#296996" stroke="#296996"></path><path d="M61 31L39 113L80 102Z" fill="#0b2430" stroke="#0b2430"></path><path d="M300 -4L277 14L319 69Z" fill="#164966" stroke="#164966"></path><path d="M0 787L35 782L51 692Z" fill="#1a5172" stroke="#1a5172"></path><path d="M67 758L79 853L135 769Z" fill="#0b2430" stroke="#0b2430"></path><path d="M251 809L270 829L281 815Z" fill="#103a4f" stroke="#103a4f"></path><path d="M277 14L228 5L262 77Z" fill="#13415b" stroke="#13415b"></path><path d="M109 0L61 31L95 51Z" fill="#24618a" stroke="#24618a"></path><path d="M95 51L61 31L95 81Z" fill="#1e597e" stroke="#1e597e"></path><path d="M109 0L95 51L165 36Z" fill="#24618a" stroke="#24618a"></path><path d="M182 849L192 755L135 769Z" fill="#103a4f" stroke="#103a4f"></path><path d="M281 815L292 826L283 808Z" fill="#0b2430" stroke="#0b2430"></path><path d="M241 0L210 0L228 5Z" fill="#0e3245" stroke="#0e3245"></path><path d="M228 5L210 0L193 59Z" fill="#0e3245" stroke="#0e3245"></path><path d="M270 829L292 826L281 815Z" fill="#0e3245" stroke="#0e3245"></path><path d="M210 0L199 0L193 59Z" fill="#1e597e" stroke="#1e597e"></path><path d="M450 791L431 774L450 825Z" fill="#0e3245" stroke="#0e3245"></path><path d="M357 794L431 774L376 762Z" fill="#0e3245" stroke="#0e3245"></path><path d="M428 747L450 791L450 714Z" fill="#103a4f" stroke="#103a4f"></path><path d="M277 14L241 0L228 5Z" fill="#13415b" stroke="#13415b"></path><path d="M450 85L390 37L364 98Z" fill="#164966" stroke="#164966"></path><path d="M277 14L267 0L241 0Z" fill="#1e597e" stroke="#1e597e"></path><path d="M300 -4L267 0L277 14Z" fill="#13415b" stroke="#13415b"></path><path d="M199 0L161 0L165 36Z" fill="#1e597e" stroke="#1e597e"></path><path d="M0 787L40 801L35 782Z" fill="#103a4f" stroke="#103a4f"></path><path d="M35 782L40 801L67 758Z" fill="#24618a" stroke="#24618a"></path><path d="M373 0L300 -4L319 69Z" fill="#296996" stroke="#296996"></path><path d="M267 0L183 -11L241 0Z" fill="#3071a3" stroke="#3071a3"></path><path d="M241 0L183 -11L210 0Z" fill="#0e3245" stroke="#0e3245"></path><path d="M210 0L183 -11L199 0Z" fill="#0b2430" stroke="#0b2430"></path><path d="M199 0L183 -11L161 0Z" fill="#3071a3" stroke="#3071a3"></path><path d="M300 -4L183 -11L267 0Z" fill="#1a5172" stroke="#1a5172"></path><path d="M161 0L109 0L165 36Z" fill="#103a4f" stroke="#103a4f"></path><path d="M0 669L0 787L51 692Z" fill="#13415b" stroke="#13415b"></path><path d="M183 -11L109 0L161 0Z" fill="#3071a3" stroke="#3071a3"></path><path d="M450 85L450 54L390 37Z" fill="#24618a" stroke="#24618a"></path><path d="M390 37L373 0L319 69Z" fill="#0d2b3a" stroke="#0d2b3a"></path><path d="M460 675L450 54L450 85Z" fill="#0e3245" stroke="#0e3245"></path><path d="M460 675L450 51L450 54Z" fill="#103a4f" stroke="#103a4f"></path><path d="M450 54L450 51L390 37Z" fill="#13415b" stroke="#13415b"></path><path d="M79 853L182 849L135 769Z" fill="#164966" stroke="#164966"></path><path d="M276 900L321 846L292 826Z" fill="#1a5172" stroke="#1a5172"></path><path d="M0 787L0 828L40 801Z" fill="#24618a" stroke="#24618a"></path><path d="M40 801L56 840L67 758Z" fill="#164966" stroke="#164966"></path><path d="M0 669L-12 790L0 787Z" fill="#24618a" stroke="#24618a"></path><path d="M0 662L-12 790L0 669Z" fill="#1e597e" stroke="#1e597e"></path><path d="M0 626L-12 790L0 662Z" fill="#0d2b3a" stroke="#0d2b3a"></path><path d="M0 599L-12 790L0 626Z" fill="#164966" stroke="#164966"></path><path d="M0 560L-12 790L0 599Z" fill="#0b2430" stroke="#0b2430"></path><path d="M0 480L-12 790L0 560Z" fill="#103a4f" stroke="#103a4f"></path><path d="M0 463L-12 790L0 480Z" fill="#0e3245" stroke="#0e3245"></path><path d="M0 339L-12 790L0 463Z" fill="#0b2430" stroke="#0b2430"></path><path d="M-11 0L-12 790L0 339Z" fill="#0b2430" stroke="#0b2430"></path><path d="M-11 0L0 339L0 336Z" fill="#24618a" stroke="#24618a"></path><path d="M-11 0L0 336L0 296Z" fill="#1a5172" stroke="#1a5172"></path><path d="M-11 0L0 296L0 181Z" fill="#24618a" stroke="#24618a"></path><path d="M-11 0L0 181L0 144Z" fill="#1e597e" stroke="#1e597e"></path><path d="M-11 0L0 144L0 116Z" fill="#296996" stroke="#296996"></path><path d="M450 714L450 791L460 675Z" fill="#1a5172" stroke="#1a5172"></path><path d="M431 774L450 791L428 747Z" fill="#13415b" stroke="#13415b"></path><path d="M450 825L431 774L357 794Z" fill="#1a5172" stroke="#1a5172"></path><path d="M329 857L321 846L299 900Z" fill="#0d2b3a" stroke="#0d2b3a"></path><path d="M292 826L321 846L357 794Z" fill="#1a5172" stroke="#1a5172"></path><path d="M396 0L373 0L390 37Z" fill="#24618a" stroke="#24618a"></path><path d="M300 -4L450 0L183 -11Z" fill="#1a5172" stroke="#1a5172"></path><path d="M183 -11L83 -10L109 0Z" fill="#0b2430" stroke="#0b2430"></path><path d="M109 0L83 -10L61 31Z" fill="#103a4f" stroke="#103a4f"></path><path d="M61 31L0 10L0 72Z" fill="#164966" stroke="#164966"></path><path d="M0 828L56 840L40 801Z" fill="#103a4f" stroke="#103a4f"></path><path d="M417 0L396 0L390 37Z" fill="#24618a" stroke="#24618a"></path><path d="M373 0L396 0L300 -4Z" fill="#0b2430" stroke="#0b2430"></path><path d="M276 900L292 826L270 829Z" fill="#0b2430" stroke="#0b2430"></path><path d="M321 846L358 865L357 794Z" fill="#103a4f" stroke="#103a4f"></path><path d="M56 840L79 853L67 758Z" fill="#0e3245" stroke="#0e3245"></path><path d="M307 900L358 865L329 857Z" fill="#24618a" stroke="#24618a"></path><path d="M0 0L0 10L61 31Z" fill="#0d2b3a" stroke="#0d2b3a"></path><path d="M0 72L-11 0L0 116Z" fill="#296996" stroke="#296996"></path><path d="M450 51L417 0L390 37Z" fill="#0d2b3a" stroke="#0d2b3a"></path><path d="M396 0L417 0L300 -4Z" fill="#24618a" stroke="#24618a"></path><path d="M56 840L73 858L79 853Z" fill="#164966" stroke="#164966"></path><path d="M79 853L174 900L182 849Z" fill="#0d2b3a" stroke="#0d2b3a"></path><path d="M80 900L73 858L76 900Z" fill="#103a4f" stroke="#103a4f"></path><path d="M-12 790L0 828L0 787Z" fill="#3071a3" stroke="#3071a3"></path><path d="M83 -10L0 0L61 31Z" fill="#1a5172" stroke="#1a5172"></path><path d="M0 10L-11 0L0 72Z" fill="#296996" stroke="#296996"></path><path d="M276 900L270 829L182 849Z" fill="#3071a3" stroke="#3071a3"></path><path d="M329 857L358 865L321 846Z" fill="#296996" stroke="#296996"></path><path d="M358 865L450 825L357 794Z" fill="#0e3245" stroke="#0e3245"></path><path d="M450 791L450 825L460 675Z" fill="#24618a" stroke="#24618a"></path><path d="M83 -10L-11 0L0 0Z" fill="#24618a" stroke="#24618a"></path><path d="M0 0L-11 0L0 10Z" fill="#1e597e" stroke="#1e597e"></path><path d="M460 675L450 0L450 51Z" fill="#0d2b3a" stroke="#0d2b3a"></path><path d="M450 51L450 0L417 0Z" fill="#24618a" stroke="#24618a"></path><path d="M417 0L450 0L300 -4Z" fill="#0e3245" stroke="#0e3245"></path><path d="M80 900L79 853L73 858Z" fill="#3071a3" stroke="#3071a3"></path><path d="M80 900L174 900L79 853Z" fill="#0b2430" stroke="#0b2430"></path><path d="M174 900L276 900L182 849Z" fill="#296996" stroke="#296996"></path><path d="M276 900L299 900L321 846Z" fill="#24618a" stroke="#24618a"></path><path d="M358 865L409 900L450 825Z" fill="#103a4f" stroke="#103a4f"></path><path d="M299 900L307 900L329 857Z" fill="#13415b" stroke="#13415b"></path><path d="M76 900L73 858L38 900Z" fill="#0b2430" stroke="#0b2430"></path><path d="M38 900L73 858L56 840Z" fill="#0b2430" stroke="#0b2430"></path><path d="M31 900L38 900L56 840Z" fill="#164966" stroke="#164966"></path><path d="M0 894L31 900L56 840Z" fill="#0e3245" stroke="#0e3245"></path><path d="M307 900L409 900L358 865Z" fill="#0d2b3a" stroke="#0d2b3a"></path><path d="M409 900L414 900L450 825Z" fill="#296996" stroke="#296996"></path><path d="M-12 790L0 894L0 828Z" fill="#13415b" stroke="#13415b"></path><path d="M0 828L0 894L56 840Z" fill="#0e3245" stroke="#0e3245"></path><path d="M-12 790L0 900L0 894Z" fill="#164966" stroke="#164966"></path><path d="M0 894L0 900L31 900Z" fill="#24618a" stroke="#24618a"></path><path d="M414 900L450 900L450 825Z" fill="#103a4f" stroke="#103a4f"></path><path d="M450 825L450 900L460 675Z" fill="#0d2b3a" stroke="#0d2b3a"></path><path d="M409 900L450 914L414 900Z" fill="#3071a3" stroke="#3071a3"></path><path d="M414 900L450 914L450 900Z" fill="#0b2430" stroke="#0b2430"></path><path d="M450 900L450 914L460 675Z" fill="#13415b" stroke="#13415b"></path><path d="M307 900L450 914L409 900Z" fill="#296996" stroke="#296996"></path><path d="M299 900L450 914L307 900Z" fill="#0d2b3a" stroke="#0d2b3a"></path><path d="M276 900L450 914L299 900Z" fill="#164966" stroke="#164966"></path><path d="M174 900L450 914L276 900Z" fill="#13415b" stroke="#13415b"></path><path d="M80 900L450 914L174 900Z" fill="#0d2b3a" stroke="#0d2b3a"></path><path d="M76 900L450 914L80 900Z" fill="#1e597e" stroke="#1e597e"></path><path d="M38 900L450 914L76 900Z" fill="#13415b" stroke="#13415b"></path><path d="M31 900L450 914L38 900Z" fill="#24618a" stroke="#24618a"></path><path d="M0 900L450 914L31 900Z" fill="#24618a" stroke="#24618a"></path></g></svg>